<svg width="689" height="99" viewBox="0 0 689 99" fill="none" xmlns="http://www.w3.org/2000/svg">
<path d="M0 31.9556C0 14.307 14.307 0 31.9556 0H47.0889L94.5004 8.39233e-05H152.573L245.152 2.01201H512.79H559.921L656.053 0.327517C667.041 0.134975 676.756 7.43043 679.635 18.0365L685.216 38.5956C687.499 47.0062 687.377 55.8886 684.863 64.233C684.647 64.9493 683.999 65.4486 683.251 65.4747L657.279 66.3794L682.917 68.6121C683.844 68.6928 684.594 69.4033 684.724 70.3255L684.857 71.2729C686.892 85.7167 675.678 98.6208 661.092 98.6208H626.41H559.921L523.751 94.3535L498.845 88.6639L470.389 85.819L505.422 92.2312C506.627 92.4518 506.455 94.2292 505.23 94.2148L192.398 90.5336L72.0889 94.3535L43.4561 89.4948C18.3619 85.2365 0.000137118 63.4964 7.7981e-06 38.0435C3.52831e-06 37.2032 0.694156 36.5288 1.53419 36.5531L32.7727 37.457L0.752197 32.8244C0.320399 32.762 0 32.3919 0 31.9556Z" fill="#554030"/>
<path d="M196.256 63.816C195.52 63.816 194.736 63.016 193.904 61.416C192.656 59.016 191.424 55.064 190.208 49.56C189.856 48.056 189.568 46.664 189.344 45.384C188.192 47.688 187.616 50.472 187.616 53.736V62.616C187.616 63.352 187.296 63.72 186.656 63.72C186.176 63.72 185.776 63.576 185.456 63.288C185.168 63.032 185.024 62.664 185.024 62.184V47.64C185.024 46.232 185.184 43.64 185.504 39.864C185.824 36.568 185.984 33.976 185.984 32.088C186.24 31.48 186.704 31.176 187.376 31.176C187.792 31.176 188.144 31.32 188.432 31.608C188.72 31.896 188.864 32.248 188.864 32.664V32.808C188.448 33.512 188.24 36.424 188.24 41.544V43.272L190.016 39.768C191.104 37.496 192.128 35.544 193.088 33.912C193.984 32.312 194.64 31.512 195.056 31.512C195.568 31.512 196 31.624 196.352 31.848C196.736 32.072 196.928 32.392 196.928 32.808L195.776 34.728C193.376 38.6 192.032 40.84 191.744 41.448C191.744 41.992 191.728 42.472 191.696 42.888L191.648 44.328C191.648 45.704 192.192 48.28 193.28 52.056C194.4 55.8 195.328 58.28 196.064 59.496L196.688 60.36C197.296 61.192 197.6 61.928 197.6 62.568C197.6 62.92 197.456 63.208 197.168 63.432C196.912 63.688 196.608 63.816 196.256 63.816ZM204.109 62.952C201.325 62.952 199.933 62.472 199.933 61.512C199.933 60.744 200.429 60.36 201.421 60.36H201.949L202.429 60.408C202.685 60.408 202.861 60.328 202.957 60.168C203.053 60.008 203.101 59.72 203.101 59.304C203.101 58.76 203.069 57.912 203.005 56.76C202.909 55.992 202.797 54.616 202.669 52.632C202.381 47.736 202.237 44.04 202.237 41.544C202.237 40.648 202.253 39.832 202.285 39.096L202.333 36.648C202.333 35.592 202.285 34.712 202.189 34.008C201.677 34.136 201.309 34.2 201.085 34.2C200.317 34.2 199.933 33.816 199.933 33.048C199.933 32.664 200.173 32.328 200.653 32.04C201.133 31.752 201.741 31.544 202.477 31.416C203.757 31.16 204.893 31.032 205.885 31.032C206.269 31.032 206.589 31.176 206.845 31.464C207.133 31.72 207.277 32.024 207.277 32.376C207.277 32.728 207.165 33.032 206.941 33.288C206.749 33.544 206.493 33.672 206.173 33.672C205.981 33.672 205.821 33.656 205.693 33.624H205.309C204.989 33.624 204.749 33.704 204.589 33.864C204.461 33.992 204.397 34.248 204.397 34.632C204.397 37.736 204.589 42.408 204.973 48.648C205.037 49.8 205.165 51.496 205.357 53.736C205.517 55.208 205.597 56.712 205.597 58.248V60.072C205.789 60.04 206.109 60.024 206.557 60.024C207.901 60.024 208.573 60.584 208.573 61.704V61.992L207.373 62.808C207.341 62.808 207.229 62.824 207.037 62.856C206.877 62.856 206.557 62.856 206.077 62.856C205.053 62.92 204.397 62.952 204.109 62.952ZM213.401 63.672C212.825 63.576 212.329 63.368 211.913 63.048C211.529 62.728 211.305 62.312 211.241 61.8L211.769 60.984C211.961 60.984 212.265 61.048 212.681 61.176C213.161 61.272 213.529 61.32 213.785 61.32C214.361 61.32 214.873 61.064 215.321 60.552C215.801 60.04 216.153 59.368 216.377 58.536C216.793 57 217.001 55.624 217.001 54.408C217.001 52.296 216.329 50.072 214.985 47.736L214.457 46.824C213.849 45.768 213.337 44.824 212.921 43.992C212.505 43.16 212.153 42.264 211.865 41.304C211.481 40.056 211.289 38.808 211.289 37.56C211.289 36.152 211.609 34.68 212.249 33.144C212.569 32.408 213.017 31.816 213.593 31.368C214.201 30.888 214.873 30.648 215.609 30.648C216.185 30.648 216.713 30.84 217.193 31.224C217.705 31.576 217.961 32.008 217.961 32.52C217.961 32.808 217.849 33.032 217.625 33.192C217.401 33.352 217.129 33.432 216.809 33.432C216.457 33.432 216.121 33.336 215.801 33.144C215.097 33.176 214.537 33.8 214.121 35.016C213.769 36.136 213.593 37.064 213.593 37.8C213.593 38.728 213.737 39.672 214.025 40.632C214.313 41.56 214.681 42.408 215.129 43.176L216.185 45.096L217.865 48.264C218.313 49.16 218.665 50.2 218.921 51.384C219.209 52.568 219.353 53.768 219.353 54.984C219.353 56.936 218.905 58.792 218.009 60.552C217.561 61.448 216.921 62.168 216.089 62.712C215.289 63.256 214.393 63.528 213.401 63.528V63.672ZM233.853 63.432C233.117 63.432 232.573 63.32 232.221 63.096C231.869 62.872 231.693 62.456 231.693 61.848C231.693 60.888 231.533 59.256 231.213 56.952L231.021 55.944L226.269 55.224C226.077 55.96 225.805 57.448 225.453 59.688C225.261 61.256 224.957 62.296 224.541 62.808C224.317 63.096 223.997 63.24 223.581 63.24C223.197 63.24 222.845 63.128 222.525 62.904C222.205 62.648 222.045 62.344 222.045 61.992L222.141 61.752L222.189 61.56C224.301 53.336 225.901 45.224 226.989 37.224C226.989 37.096 227.005 36.888 227.037 36.6C227.069 36.28 227.101 35.832 227.133 35.256C227.229 34.072 227.325 33.128 227.421 32.424C227.549 31.72 227.741 31.192 227.997 30.84H229.629C230.077 30.84 230.461 30.952 230.781 31.176C231.101 31.368 231.261 31.656 231.261 32.04C231.261 34.472 231.597 38.088 232.269 42.888C232.909 47.816 233.229 51.272 233.229 53.256C233.229 53.448 233.309 53.944 233.469 54.744C233.629 55.48 233.709 55.96 233.709 56.184C233.709 56.408 233.869 57.368 234.189 59.064C234.477 60.6 234.621 61.592 234.621 62.04V62.088C234.621 62.792 234.365 63.24 233.853 63.432ZM230.685 54.216C230.589 53.736 230.541 53.144 230.541 52.44C230.541 49.56 230.285 45.88 229.773 41.4L229.293 36.408C227.917 43.928 226.973 49.608 226.461 53.448C226.941 53.768 228.349 54.024 230.685 54.216ZM251.845 63.144C251.461 63.144 251.173 63.048 250.981 62.856C250.789 62.632 250.645 62.264 250.549 61.752L250.261 60.84V60.744V60.6C250.261 59.544 249.157 55.944 246.949 49.8C244.773 43.656 243.061 39.112 241.812 36.168V60.312L242.005 60.648C242.037 60.712 242.101 60.824 242.197 60.984C242.293 61.144 242.341 61.304 242.341 61.464C242.341 61.88 242.197 62.232 241.909 62.52C241.621 62.808 241.269 62.952 240.853 62.952C239.829 62.952 239.317 61.976 239.317 60.024L239.269 51.816C239.237 49.352 239.221 46.6 239.221 43.56C239.221 42.536 239.269 41.048 239.365 39.096C239.461 37.08 239.509 35.592 239.509 34.632C239.509 33.128 240.085 31.944 241.237 31.08V31.368C241.429 31.304 241.557 31.272 241.621 31.272C242.357 31.272 243.285 32.552 244.405 35.112C245.301 37.16 246.101 39.32 246.805 41.592C247.541 43.864 248.501 47.096 249.685 51.288L250.165 53.016C250.901 55.608 251.461 57.464 251.845 58.584C252.485 51.704 252.805 43.576 252.805 34.2V33.576C252.773 33.384 252.757 33.176 252.757 32.952C252.757 31.992 253.141 31.512 253.909 31.512C254.357 31.512 254.693 31.688 254.917 32.04C255.173 32.392 255.301 32.84 255.301 33.384V36.984C255.237 41.912 255.045 47.256 254.725 53.016C254.405 58.776 254.021 62.024 253.573 62.76C252.645 63.016 252.069 63.144 251.845 63.144ZM271.867 63.48C271.163 63.48 270.731 63.176 270.571 62.568C270.443 62.184 270.379 61.64 270.379 60.936C270.379 59.56 270.443 57.864 270.571 55.848C270.731 53.928 270.811 52.216 270.811 50.712C270.811 49.016 270.859 46.472 270.955 43.08L271.051 35.496C271.051 35.208 271.003 34.776 270.907 34.2L270.763 33V32.76C270.763 32.024 270.875 31.48 271.099 31.128C271.323 30.776 271.739 30.6 272.347 30.6C273.179 30.6 274.091 30.84 275.083 31.32C276.075 31.8 276.795 32.408 277.243 33.144C278.171 34.68 278.635 36.6 278.635 38.904C278.635 40.632 278.491 42.088 278.203 43.272C277.915 44.424 277.419 45.496 276.715 46.488C277.579 47.32 278.155 48.392 278.443 49.704C278.763 50.984 278.923 52.6 278.923 54.552C278.923 56.504 278.587 58.2 277.915 59.64C277.147 61.272 276.027 62.392 274.555 63C273.659 63.32 272.763 63.48 271.867 63.48ZM273.403 45.096C275.067 45.064 275.899 43.128 275.899 39.288C275.899 35.16 275.243 33 273.931 32.808C273.579 33.544 273.403 35.272 273.403 37.992V45.096ZM273.115 61.032C274.139 60.808 274.939 60.2 275.515 59.208C276.091 58.216 276.379 57.08 276.379 55.8C276.379 54.456 276.299 53.272 276.139 52.248C276.011 51.448 275.835 50.792 275.611 50.28C275.419 49.736 275.147 49.24 274.795 48.792C274.411 48.312 273.963 48.024 273.451 47.928C273.323 49.752 273.259 52.168 273.259 55.176C273.259 55.368 273.227 55.976 273.163 57L273.067 58.632C273.067 58.696 273.083 58.744 273.115 58.776V58.872V61.032ZM293.618 63.432C292.882 63.432 292.338 63.32 291.986 63.096C291.634 62.872 291.458 62.456 291.458 61.848C291.458 60.888 291.298 59.256 290.978 56.952L290.786 55.944L286.034 55.224C285.842 55.96 285.57 57.448 285.218 59.688C285.026 61.256 284.722 62.296 284.306 62.808C284.082 63.096 283.762 63.24 283.346 63.24C282.962 63.24 282.61 63.128 282.29 62.904C281.97 62.648 281.81 62.344 281.81 61.992L281.906 61.752L281.954 61.56C284.066 53.336 285.666 45.224 286.754 37.224C286.754 37.096 286.77 36.888 286.802 36.6C286.834 36.28 286.866 35.832 286.898 35.256C286.994 34.072 287.09 33.128 287.186 32.424C287.314 31.72 287.506 31.192 287.762 30.84H289.394C289.842 30.84 290.226 30.952 290.546 31.176C290.866 31.368 291.026 31.656 291.026 32.04C291.026 34.472 291.362 38.088 292.034 42.888C292.674 47.816 292.994 51.272 292.994 53.256C292.994 53.448 293.074 53.944 293.234 54.744C293.394 55.48 293.474 55.96 293.474 56.184C293.474 56.408 293.634 57.368 293.954 59.064C294.242 60.6 294.386 61.592 294.386 62.04V62.088C294.386 62.792 294.13 63.24 293.618 63.432ZM290.45 54.216C290.354 53.736 290.306 53.144 290.306 52.44C290.306 49.56 290.05 45.88 289.538 41.4L289.058 36.408C287.682 43.928 286.738 49.608 286.226 53.448C286.706 53.768 288.114 54.024 290.45 54.216ZM299.37 63.672C298.794 63.576 298.298 63.368 297.882 63.048C297.498 62.728 297.274 62.312 297.21 61.8L297.738 60.984C297.93 60.984 298.234 61.048 298.65 61.176C299.13 61.272 299.498 61.32 299.754 61.32C300.33 61.32 300.842 61.064 301.29 60.552C301.77 60.04 302.122 59.368 302.346 58.536C302.762 57 302.97 55.624 302.97 54.408C302.97 52.296 302.298 50.072 300.954 47.736L300.426 46.824C299.818 45.768 299.306 44.824 298.89 43.992C298.474 43.16 298.122 42.264 297.834 41.304C297.45 40.056 297.258 38.808 297.258 37.56C297.258 36.152 297.578 34.68 298.218 33.144C298.538 32.408 298.986 31.816 299.562 31.368C300.17 30.888 300.842 30.648 301.578 30.648C302.154 30.648 302.682 30.84 303.162 31.224C303.674 31.576 303.93 32.008 303.93 32.52C303.93 32.808 303.818 33.032 303.594 33.192C303.37 33.352 303.098 33.432 302.778 33.432C302.426 33.432 302.09 33.336 301.77 33.144C301.066 33.176 300.506 33.8 300.09 35.016C299.738 36.136 299.562 37.064 299.562 37.8C299.562 38.728 299.706 39.672 299.994 40.632C300.282 41.56 300.65 42.408 301.098 43.176L302.154 45.096L303.834 48.264C304.282 49.16 304.634 50.2 304.89 51.384C305.178 52.568 305.322 53.768 305.322 54.984C305.322 56.936 304.874 58.792 303.978 60.552C303.53 61.448 302.89 62.168 302.058 62.712C301.258 63.256 300.362 63.528 299.37 63.528V63.672ZM321.694 63.816C320.958 63.816 320.174 63.016 319.342 61.416C318.094 59.016 316.862 55.064 315.646 49.56C315.294 48.056 315.006 46.664 314.782 45.384C313.63 47.688 313.054 50.472 313.054 53.736V62.616C313.054 63.352 312.734 63.72 312.094 63.72C311.614 63.72 311.214 63.576 310.894 63.288C310.606 63.032 310.462 62.664 310.462 62.184V47.64C310.462 46.232 310.622 43.64 310.942 39.864C311.262 36.568 311.422 33.976 311.422 32.088C311.678 31.48 312.142 31.176 312.814 31.176C313.23 31.176 313.582 31.32 313.87 31.608C314.158 31.896 314.302 32.248 314.302 32.664V32.808C313.886 33.512 313.678 36.424 313.678 41.544V43.272L315.454 39.768C316.542 37.496 317.566 35.544 318.526 33.912C319.422 32.312 320.078 31.512 320.494 31.512C321.006 31.512 321.438 31.624 321.79 31.848C322.174 32.072 322.366 32.392 322.366 32.808L321.214 34.728C318.814 38.6 317.47 40.84 317.182 41.448C317.182 41.992 317.166 42.472 317.134 42.888L317.086 44.328C317.086 45.704 317.63 48.28 318.718 52.056C319.838 55.8 320.766 58.28 321.502 59.496L322.126 60.36C322.734 61.192 323.038 61.928 323.038 62.568C323.038 62.92 322.894 63.208 322.606 63.432C322.35 63.688 322.046 63.816 321.694 63.816ZM329.355 63.624C328.939 63.624 328.555 63.48 328.203 63.192C327.883 62.904 327.707 62.552 327.675 62.136V60.888V59.928C327.643 59.64 327.627 59.304 327.627 58.92C327.627 58.248 327.579 57.224 327.483 55.848L327.387 52.776C327.387 51.208 327.435 48.872 327.531 45.768C327.659 42.984 327.723 40.648 327.723 38.76C327.723 38.312 327.675 37.64 327.579 36.744C327.483 35.816 327.435 35.144 327.435 34.728C327.435 32.456 328.107 31.32 329.451 31.32C330.507 31.32 331.723 31.528 333.099 31.944C334.507 32.36 335.211 32.856 335.211 33.432C335.211 33.752 335.067 34.056 334.779 34.344C334.523 34.6 334.203 34.808 333.819 34.968C332.475 34.488 331.259 34.168 330.171 34.008C330.203 34.488 330.219 35.176 330.219 36.072C330.219 37.352 330.203 38.504 330.171 39.528C330.075 41.064 330.027 42.216 330.027 42.984L330.171 43.752L330.939 43.704C331.195 43.672 331.515 43.656 331.899 43.656C333.435 43.656 334.203 44.104 334.203 45C334.203 45.352 334.059 45.656 333.771 45.912C333.483 46.136 333.115 46.248 332.667 46.248C332.091 46.248 331.643 46.216 331.323 46.152H330.123C330.187 46.984 330.219 48.2 330.219 49.8C330.219 51.4 330.203 52.84 330.171 54.12C330.075 56.072 330.027 57.528 330.027 58.488C330.027 60.28 330.059 61.176 330.123 61.176L331.707 61.128C332.251 61.096 332.907 61.08 333.675 61.08C334.891 61.08 335.499 61.464 335.499 62.232C335.499 62.68 335.291 63.016 334.875 63.24C334.491 63.496 334.011 63.624 333.435 63.624H329.355ZM343.475 62.232L343.427 60.36C343.395 59.816 343.379 59.208 343.379 58.536L343.427 56.904C343.331 56.552 343.091 53.048 342.707 46.392C342.323 39.736 342.099 35.464 342.035 33.576C340.179 33.512 338.995 33.32 338.483 33C338.131 32.744 337.955 32.456 337.955 32.136C337.955 31.88 338.115 31.656 338.435 31.464C338.787 31.24 339.139 31.128 339.491 31.128C340.387 31.128 341.475 31.192 342.755 31.32C343.971 31.48 345.059 31.56 346.019 31.56H346.403H346.787C347.779 31.56 348.275 31.944 348.275 32.712C348.275 33.096 348.115 33.416 347.795 33.672C347.475 33.896 347.107 34.008 346.691 34.008C346.403 34.008 345.987 33.96 345.443 33.864L344.483 33.672L344.435 33.912L344.387 34.152C344.387 37 344.659 41.544 345.203 47.784C345.715 53.64 345.971 58.184 345.971 61.416C345.971 61.8 345.795 62.136 345.443 62.424C345.123 62.712 344.755 62.856 344.339 62.856L343.475 62.232ZM363.37 63.288C362.538 63.288 362.122 61.192 362.122 57L362.218 49.416C362.25 47.176 362.266 44.664 362.266 41.88C362.266 40.856 362.17 39.272 361.978 37.128C361.818 34.792 361.738 33.368 361.738 32.856C361.738 32.44 361.914 32.072 362.266 31.752C362.618 31.432 363.002 31.272 363.418 31.272C364.538 31.272 365.61 31.528 366.634 32.04C367.69 32.52 368.618 33.208 369.418 34.104C371.114 36.056 372.234 38.2 372.778 40.536C373.066 41.72 373.21 42.888 373.21 44.04C373.21 44.456 373.194 44.84 373.162 45.192L373.114 46.488V49.128C373.114 51.176 373.05 52.792 372.922 53.976C372.73 55.576 372.362 57 371.818 58.248C371.178 59.592 370.25 60.792 369.034 61.848C368.458 62.328 367.722 62.808 366.826 63.288H363.37ZM365.482 60.84C366.122 60.84 366.714 60.68 367.258 60.36C367.802 60.008 368.266 59.544 368.65 58.968C368.97 58.456 369.258 57.816 369.514 57.048C369.802 56.248 370.01 55.48 370.138 54.744C370.426 53.304 370.602 51.832 370.666 50.328C370.698 49.944 370.714 49.384 370.714 48.648C370.714 38.984 368.842 33.944 365.098 33.528C364.874 34.968 364.762 36.632 364.762 38.52C364.762 40.536 364.89 44.056 365.146 49.08C365.37 53.528 365.482 57.064 365.482 59.688V60.84ZM380.828 62.952C378.044 62.952 376.652 62.472 376.652 61.512C376.652 60.744 377.148 60.36 378.14 60.36H378.668L379.148 60.408C379.404 60.408 379.58 60.328 379.676 60.168C379.772 60.008 379.82 59.72 379.82 59.304C379.82 58.76 379.788 57.912 379.724 56.76C379.628 55.992 379.516 54.616 379.388 52.632C379.1 47.736 378.956 44.04 378.956 41.544C378.956 40.648 378.972 39.832 379.004 39.096L379.052 36.648C379.052 35.592 379.004 34.712 378.908 34.008C378.396 34.136 378.028 34.2 377.804 34.2C377.036 34.2 376.652 33.816 376.652 33.048C376.652 32.664 376.892 32.328 377.372 32.04C377.852 31.752 378.46 31.544 379.196 31.416C380.476 31.16 381.612 31.032 382.604 31.032C382.988 31.032 383.308 31.176 383.564 31.464C383.852 31.72 383.996 32.024 383.996 32.376C383.996 32.728 383.884 33.032 383.66 33.288C383.468 33.544 383.212 33.672 382.892 33.672C382.7 33.672 382.54 33.656 382.412 33.624H382.028C381.708 33.624 381.468 33.704 381.308 33.864C381.18 33.992 381.116 34.248 381.116 34.632C381.116 37.736 381.308 42.408 381.692 48.648C381.756 49.8 381.884 51.496 382.076 53.736C382.236 55.208 382.316 56.712 382.316 58.248V60.072C382.508 60.04 382.828 60.024 383.276 60.024C384.62 60.024 385.292 60.584 385.292 61.704V61.992L384.092 62.808C384.06 62.808 383.948 62.824 383.756 62.856C383.596 62.856 383.276 62.856 382.796 62.856C381.772 62.92 381.116 62.952 380.828 62.952ZM398.712 63.432C397.976 63.432 397.432 63.32 397.08 63.096C396.728 62.872 396.552 62.456 396.552 61.848C396.552 60.888 396.392 59.256 396.072 56.952L395.88 55.944L391.128 55.224C390.936 55.96 390.664 57.448 390.312 59.688C390.12 61.256 389.816 62.296 389.4 62.808C389.176 63.096 388.856 63.24 388.44 63.24C388.056 63.24 387.704 63.128 387.384 62.904C387.064 62.648 386.904 62.344 386.904 61.992L387 61.752L387.048 61.56C389.16 53.336 390.76 45.224 391.848 37.224C391.848 37.096 391.864 36.888 391.896 36.6C391.928 36.28 391.96 35.832 391.992 35.256C392.088 34.072 392.184 33.128 392.28 32.424C392.408 31.72 392.6 31.192 392.856 30.84H394.488C394.936 30.84 395.32 30.952 395.64 31.176C395.96 31.368 396.12 31.656 396.12 32.04C396.12 34.472 396.456 38.088 397.128 42.888C397.768 47.816 398.088 51.272 398.088 53.256C398.088 53.448 398.168 53.944 398.328 54.744C398.488 55.48 398.568 55.96 398.568 56.184C398.568 56.408 398.728 57.368 399.048 59.064C399.336 60.6 399.48 61.592 399.48 62.04V62.088C399.48 62.792 399.224 63.24 398.712 63.432ZM395.544 54.216C395.448 53.736 395.4 53.144 395.4 52.44C395.4 49.56 395.144 45.88 394.632 41.4L394.152 36.408C392.776 43.928 391.832 49.608 391.32 53.448C391.8 53.768 393.208 54.024 395.544 54.216ZM412 63.816C411.296 63.816 410.656 63.048 410.08 61.512C409.408 59.848 408.912 58.136 408.592 56.376L408.256 54.744C407.328 50.168 406.736 47.56 406.48 46.92H405.904C405.904 47.848 405.888 48.696 405.856 49.464V52.104C405.856 56.392 406.16 59.736 406.768 62.136L406.24 63.432H404.896L404.272 62.712L404.32 59.496C404.32 56.616 404.176 52.248 403.888 46.392C403.632 40.152 403.504 35.784 403.504 33.288C403.504 31.752 404.032 30.984 405.088 30.984C406.816 30.984 408.224 31.432 409.312 32.328C410.432 33.224 410.992 34.472 410.992 36.072V39.432C410.992 39.912 410.912 40.472 410.752 41.112C410.592 41.72 410.416 42.216 410.224 42.6L409.312 44.328L408.544 45.768L408.784 46.92L409.456 50.328C409.904 52.792 410.336 54.792 410.752 56.328C411.168 57.864 411.68 59.256 412.288 60.504L412.576 61.08C412.896 61.72 413.056 62.232 413.056 62.616C413.056 62.936 412.96 63.208 412.768 63.432C412.576 63.688 412.32 63.816 412 63.816ZM406.096 44.568C406.8 44.216 407.392 43.256 407.872 41.688C408.384 40.088 408.64 38.616 408.64 37.272C408.64 36.248 408.512 35.288 408.256 34.392C408.096 33.88 407.824 33.496 407.44 33.24C407.088 32.952 406.64 32.808 406.096 32.808L406 33.048L405.904 33.48L406 39.144C406.064 40.808 406.096 42.616 406.096 44.568ZM420.156 62.952C417.372 62.952 415.98 62.472 415.98 61.512C415.98 60.744 416.476 60.36 417.468 60.36H417.996L418.476 60.408C418.732 60.408 418.908 60.328 419.004 60.168C419.1 60.008 419.148 59.72 419.148 59.304C419.148 58.76 419.116 57.912 419.052 56.76C418.956 55.992 418.844 54.616 418.716 52.632C418.428 47.736 418.284 44.04 418.284 41.544C418.284 40.648 418.3 39.832 418.332 39.096L418.38 36.648C418.38 35.592 418.332 34.712 418.236 34.008C417.724 34.136 417.356 34.2 417.132 34.2C416.364 34.2 415.98 33.816 415.98 33.048C415.98 32.664 416.22 32.328 416.7 32.04C417.18 31.752 417.788 31.544 418.524 31.416C419.804 31.16 420.94 31.032 421.932 31.032C422.316 31.032 422.636 31.176 422.892 31.464C423.18 31.72 423.324 32.024 423.324 32.376C423.324 32.728 423.212 33.032 422.988 33.288C422.796 33.544 422.54 33.672 422.22 33.672C422.028 33.672 421.868 33.656 421.74 33.624H421.356C421.036 33.624 420.796 33.704 420.636 33.864C420.508 33.992 420.444 34.248 420.444 34.632C420.444 37.736 420.636 42.408 421.02 48.648C421.084 49.8 421.212 51.496 421.404 53.736C421.564 55.208 421.644 56.712 421.644 58.248V60.072C421.836 60.04 422.156 60.024 422.604 60.024C423.948 60.024 424.62 60.584 424.62 61.704V61.992L423.42 62.808C423.388 62.808 423.276 62.824 423.084 62.856C422.924 62.856 422.604 62.856 422.124 62.856C421.1 62.92 420.444 62.952 420.156 62.952ZM430.792 63.624C430.376 63.624 429.992 63.48 429.64 63.192C429.32 62.904 429.144 62.552 429.112 62.136V60.888V59.928C429.08 59.64 429.064 59.304 429.064 58.92C429.064 58.248 429.016 57.224 428.92 55.848L428.824 52.776C428.824 51.208 428.872 48.872 428.968 45.768C429.096 42.984 429.16 40.648 429.16 38.76C429.16 38.312 429.112 37.64 429.016 36.744C428.92 35.816 428.872 35.144 428.872 34.728C428.872 32.456 429.544 31.32 430.888 31.32C431.944 31.32 433.16 31.528 434.536 31.944C435.944 32.36 436.648 32.856 436.648 33.432C436.648 33.752 436.504 34.056 436.216 34.344C435.96 34.6 435.64 34.808 435.256 34.968C433.912 34.488 432.696 34.168 431.608 34.008C431.64 34.488 431.656 35.176 431.656 36.072C431.656 37.352 431.64 38.504 431.608 39.528C431.512 41.064 431.464 42.216 431.464 42.984L431.608 43.752L432.376 43.704C432.632 43.672 432.952 43.656 433.336 43.656C434.872 43.656 435.64 44.104 435.64 45C435.64 45.352 435.496 45.656 435.208 45.912C434.92 46.136 434.552 46.248 434.104 46.248C433.528 46.248 433.08 46.216 432.76 46.152H431.56C431.624 46.984 431.656 48.2 431.656 49.8C431.656 51.4 431.64 52.84 431.608 54.12C431.512 56.072 431.464 57.528 431.464 58.488C431.464 60.28 431.496 61.176 431.56 61.176L433.144 61.128C433.688 61.096 434.344 61.08 435.112 61.08C436.328 61.08 436.936 61.464 436.936 62.232C436.936 62.68 436.728 63.016 436.312 63.24C435.928 63.496 435.448 63.624 434.872 63.624H430.792ZM443.089 63.672C442.513 63.576 442.017 63.368 441.601 63.048C441.217 62.728 440.993 62.312 440.929 61.8L441.457 60.984C441.649 60.984 441.953 61.048 442.369 61.176C442.849 61.272 443.217 61.32 443.473 61.32C444.049 61.32 444.561 61.064 445.009 60.552C445.489 60.04 445.841 59.368 446.065 58.536C446.481 57 446.689 55.624 446.689 54.408C446.689 52.296 446.017 50.072 444.673 47.736L444.145 46.824C443.537 45.768 443.025 44.824 442.609 43.992C442.193 43.16 441.841 42.264 441.553 41.304C441.169 40.056 440.977 38.808 440.977 37.56C440.977 36.152 441.297 34.68 441.937 33.144C442.257 32.408 442.705 31.816 443.281 31.368C443.889 30.888 444.561 30.648 445.297 30.648C445.873 30.648 446.401 30.84 446.881 31.224C447.393 31.576 447.649 32.008 447.649 32.52C447.649 32.808 447.537 33.032 447.313 33.192C447.089 33.352 446.817 33.432 446.497 33.432C446.145 33.432 445.809 33.336 445.489 33.144C444.785 33.176 444.225 33.8 443.809 35.016C443.457 36.136 443.281 37.064 443.281 37.8C443.281 38.728 443.425 39.672 443.713 40.632C444.001 41.56 444.369 42.408 444.817 43.176L445.873 45.096L447.553 48.264C448.001 49.16 448.353 50.2 448.609 51.384C448.897 52.568 449.041 53.768 449.041 54.984C449.041 56.936 448.593 58.792 447.697 60.552C447.249 61.448 446.609 62.168 445.777 62.712C444.977 63.256 444.081 63.528 443.089 63.528V63.672Z" fill="#E4E0E0"/>
</svg>
