<svg width="64" height="64" viewBox="0 0 64 64" fill="none" xmlns="http://www.w3.org/2000/svg">
<path d="M31.9997 17C20.694 17 10.7201 28.2971 6.67677 32.5845C6.30267 32.9812 6.30347 33.6016 6.69426 33.9819C11.8104 38.9602 20.536 45 31.9997 45C43.5778 45 49.5706 38.839 57.1632 32.4614C57.6118 32.0846 57.6498 31.4065 57.24 30.9879C51.7286 25.3582 43.4602 17 31.9997 17Z" fill="#35394C"/>
<path d="M32 40C36.4183 40 40 36.4183 40 32C40 27.5817 36.4183 24 32 24C27.5817 24 24 27.5817 24 32C24 36.4183 27.5817 40 32 40Z" fill="white"/>
<path d="M32.9586 34.7155C33.8272 34.3968 34.2851 33.9858 34.6236 33.1914C34.9453 32.4363 34.9453 31.5637 34.6236 30.8086C34.3167 30.0884 33.9116 29.6833 33.1914 29.3764C32.4363 29.0547 31.5637 29.0547 30.8086 29.3764C30.1192 29.6702 29.7185 30.0539 29.4163 30.7179C29.0483 31.5265 29.0349 32.4704 29.3406 33.3045C29.6814 34.2342 30.1382 34.5043 31.0306 34.7538C31.663 34.9306 32.3422 34.9417 32.9586 34.7155Z" fill="#35394C"/>
</svg>
