<svg width="83" height="48" viewBox="0 0 83 48" fill="none" xmlns="http://www.w3.org/2000/svg">
<path d="M71.7865 25.7965C70.8825 25.7965 70.005 25.9084 69.1648 26.1156C69.3568 25.2821 69.4541 24.4297 69.4547 23.5744C69.4547 17.3199 64.3844 12.2495 58.1298 12.2495C55.8466 12.2463 53.6163 12.9366 51.7342 14.2289C49.6097 6.04367 42.1719 -6.10352e-05 33.3222 -6.10352e-05C22.8172 -6.10352e-05 14.301 8.5161 14.301 19.0212C6.40287 19.0212 0 25.4239 0 33.3222C0 41.2203 6.4027 47.6232 14.301 47.6232H71.7865C77.8139 47.6232 82.7 42.7371 82.7 36.7097C82.7 30.6824 77.8139 25.7965 71.7865 25.7965Z" fill="#E7EFF2"/>
</svg>
