<svg width="84" height="84" viewBox="0 0 84 84" fill="none" xmlns="http://www.w3.org/2000/svg">
<path d="M72.4366 43.9848C71.5326 43.9848 70.655 44.0967 69.8148 44.3039C70.0069 43.4705 70.1041 42.618 70.1047 41.7628C70.1047 35.5082 65.0344 30.4379 58.7798 30.4379C56.4967 30.4347 54.2664 31.1249 52.3842 32.4173C50.2597 24.232 42.822 18.1883 33.9723 18.1883C23.4672 18.1883 14.951 26.7044 14.951 37.2095C7.05289 37.2095 0.650024 43.6122 0.650024 51.5105C0.650024 59.4087 7.05273 65.8115 14.951 65.8115H72.4366C78.4639 65.8115 83.35 60.9254 83.35 54.8981C83.35 48.8708 78.4639 43.9848 72.4366 43.9848Z" fill="#E7EFF2"/>
</svg>
