<svg width="87" height="54" viewBox="0 0 87 54" fill="none" xmlns="http://www.w3.org/2000/svg">
<path d="M12.9798 35.9374C13.4214 35.3514 11.142 29.436 16.8072 23.8229C22.4724 18.2098 27.1854 20.4216 27.7628 20.1294C28.3341 19.8454 29.4157 7.09091 40.8162 2.21435C52.2167 -2.6622 65.4215 1.62316 69.7446 11.2606C73.6967 20.0697 72.504 26.5458 72.867 26.9023C73.2229 27.2597 78.9244 26.2547 82.9833 31.1124C87.0422 35.97 86.3098 39.4564 86.3098 39.4564L66.1353 48.9495L32.3852 53.6928C32.3852 53.6928 1.55121 50.0369 1.05398 48.6733C0.55674 47.3098 0.592802 42.6479 5.0486 39.1985C8.9205 36.2023 12.201 36.9709 12.9798 35.9374Z" fill="#CED3D7"/>
</svg>
