<svg width="79" height="47" viewBox="0 0 79 47" fill="none" xmlns="http://www.w3.org/2000/svg">
<path d="M68.5748 25.3257C67.7113 25.3257 66.873 25.4356 66.0704 25.639C66.2539 24.8208 66.3467 23.9839 66.3473 23.1442C66.3473 17.0038 61.5038 12.026 55.5291 12.026C53.3481 12.0228 51.2176 12.7005 49.4196 13.9693C47.3902 5.93338 40.2852 -6.10352e-05 31.8314 -6.10352e-05C21.7963 -6.10352e-05 13.6612 8.36068 13.6612 18.6741C6.11641 18.6741 0 24.9599 0 32.7141C0 40.4681 6.11625 46.7541 13.6612 46.7541H68.5748C74.3325 46.7541 79 41.9572 79 36.0398C79 30.1225 74.3325 25.3257 68.5748 25.3257Z" fill="#F6F9FA"/>
</svg>
