<svg width="181" height="111" viewBox="0 0 181 111" fill="none" xmlns="http://www.w3.org/2000/svg">
<path d="M31.0469 56.2434C32.2539 55.266 30.6015 41.9486 45.1121 33.3208C59.6228 24.6929 68.1704 31.6493 69.506 31.345C70.8249 31.0541 79.5782 5.41071 105.492 1.23276C131.405 -2.9452 156.333 12.6191 160.277 34.628C163.883 54.7455 158.117 67.4365 158.68 68.3546C159.228 69.271 171.454 70.1265 177.303 82.1826C183.152 94.2387 179.862 101.025 179.862 101.025L133.563 110.192L61.8122 102.65C61.8122 102.65 0.352361 79.3507 0.0293386 76.2953C-0.293683 73.24 2.16779 63.6832 13.0863 58.88C22.5735 54.7087 28.9179 57.9674 31.0469 56.2434Z" fill="#CED3D7"/>
</svg>
