<svg width="105" height="105" viewBox="0 0 105 105" fill="none" xmlns="http://www.w3.org/2000/svg">
<path d="M22.9798 54.9374C23.4214 54.3514 21.142 48.436 26.8072 42.8229C32.4724 37.2098 37.1854 39.4216 37.7628 39.1294C38.3341 38.8454 39.4157 26.0909 50.8162 21.2144C62.2167 16.3378 75.4215 20.6232 79.7446 30.2606C83.6967 39.0697 82.504 45.5458 82.867 45.9023C83.2229 46.2597 88.9244 45.2547 92.9833 50.1124C97.0422 54.97 96.3098 58.4564 96.3098 58.4564L76.1353 67.9495L42.3852 72.6928C42.3852 72.6928 11.5512 69.0369 11.054 67.6733C10.5567 66.3098 10.5928 61.6479 15.0486 58.1985C18.9205 55.2023 22.201 55.9709 22.9798 54.9374Z" fill="#CED3D7"/>
<path d="M34.3978 75.5543C34.3978 75.5543 23.4691 79.4914 15.0274 74.6676C9.94715 71.758 10.8076 65.7652 10.8076 65.7652C10.8076 65.7652 14.5561 68.6218 21.3112 68.5893C28.0673 68.5638 35.4592 67.2121 35.4592 67.2121C35.4592 67.2121 37.7596 70.1194 44.9496 70.5933C53.9604 71.1824 57.9472 66.0526 57.9472 66.0526C57.9472 66.0526 60.7478 68.584 69.217 67.5975C77.6862 66.611 81.5886 60.0523 82.3615 59.8055C82.7521 59.6851 85.375 61.4702 89.8802 60.0803C94.1691 58.7572 96.2132 56.5272 96.2132 56.5272C96.2132 56.5272 97.5121 61.1615 93.5045 64.6935C90.377 67.4468 84.4174 68.5318 84.4174 68.5318C84.4174 68.5318 83.9965 72.1636 80.2374 75.2895C76.7468 78.2031 70.2651 79.9217 65.1799 79.152C58.794 78.1868 56.882 75.6105 56.882 75.6105C56.882 75.6105 52.6915 78.928 45.4288 79.0246C38.5676 79.1303 34.3978 75.5543 34.3978 75.5543Z" fill="#DAE1E6"/>
</svg>
