<svg width="1440" height="281" viewBox="0 0 1440 281" fill="none" xmlns="http://www.w3.org/2000/svg">
<rect y="-6.10352e-05" width="1440" height="281" fill="#DAE1E6"/>
<path d="M261.047 107.243C262.254 106.266 260.602 92.9486 275.112 84.3208C289.623 75.6929 298.17 82.6493 299.506 82.345C300.825 82.0541 309.578 56.4107 335.492 52.2328C361.405 48.0548 386.333 63.6191 390.277 85.628C393.883 105.746 388.117 118.437 388.68 119.355C389.228 120.271 401.454 121.127 407.303 133.183C413.152 145.239 409.862 152.025 409.862 152.025L363.563 161.192L291.812 153.65C291.812 153.65 230.352 130.351 230.029 127.295C229.706 124.24 232.168 114.683 243.086 109.88C252.574 105.709 258.918 108.967 261.047 107.243Z" fill="#CED3D7"/>
<path d="M273.941 155.437C273.941 155.437 249.478 157.927 234.609 143.696C225.664 135.118 230.501 123.25 230.501 123.25C230.501 123.25 236.737 131.037 250.629 134.43C264.518 137.837 280.393 138.846 280.393 138.846C280.393 138.846 283.629 145.996 298.155 150.651C316.361 156.476 327.177 147.981 327.177 147.981C327.177 147.981 331.633 154.615 349.533 156.926C367.434 159.236 378.808 147.764 380.522 147.652C381.386 147.605 385.859 152.615 395.824 152.067C405.311 151.546 410.652 148.013 410.652 148.013C410.652 148.013 410.947 158.197 400.906 163.399C393.073 167.452 380.276 166.629 380.276 166.629C380.276 166.629 377.552 173.873 368.23 178.369C359.568 182.565 345.375 182.776 335.324 178.591C322.702 173.338 320.094 167.067 320.094 167.067C320.094 167.067 309.788 171.735 294.821 168.214C280.674 164.918 273.941 155.437 273.941 155.437Z" fill="#DAE1E6"/>
<path d="M815.737 173.273C885.229 157.426 927.539 173.514 997.915 162.227C1044.99 154.676 1116.94 135.005 1116.94 135.005C1116.94 135.005 1206.42 98.9142 1262 92.9999C1332.75 85.4713 1440 89.9999 1440 89.9999V238.369H1065.12L704.811 211.147C704.811 211.147 771.108 183.45 815.737 173.273Z" fill="#4F6F59"/>
<path d="M997.975 222.071C997.975 234.572 973.472 238.369 948.304 238.369C923.137 238.369 906.836 234.572 906.836 222.071C906.836 209.569 929.517 183.136 954.684 183.136C979.851 183.136 997.975 209.569 997.975 222.071Z" fill="#3D4C37"/>
<path d="M1318.48 211.813C1318.48 224.315 1286.22 228.111 1253.08 228.111C1219.94 228.111 1198.48 224.315 1198.48 211.813C1198.48 199.311 1228.34 172.878 1261.48 172.878C1294.62 172.878 1318.48 199.311 1318.48 211.813Z" fill="#3D4C37"/>
<path d="M1362 206.5C1372 222 1348.47 232.846 1337.14 232.846C1325.82 232.846 1318.48 229.049 1318.48 216.547C1318.48 204.046 1328.69 177.613 1340.01 177.613C1351.34 177.613 1354.9 195.5 1362 206.5Z" fill="#3D4C37"/>
<path d="M1209.11 217.168C1209.11 225.562 1203.4 228.111 1197.52 228.111C1191.65 228.111 1187.85 225.562 1187.85 217.168C1187.85 208.774 1193.14 191.026 1199.01 191.026C1204.88 191.026 1209.11 208.774 1209.11 217.168Z" fill="#3D4C37"/>
<path d="M1440 204.77C1440 217.219 1418.76 221 1396.95 221C1375.13 221 1352 218 1361 204.77C1361 192.321 1375.13 168 1396.95 168C1418.76 168 1440 192.321 1440 204.77Z" fill="#3D4C37"/>
<path d="M1198.48 219.341C1198.48 229.7 1181.74 232.846 1164.54 232.846C1147.34 232.846 1136.2 229.7 1136.2 219.341C1136.2 208.983 1151.7 187.081 1168.9 187.081C1186.1 187.081 1198.48 208.983 1198.48 219.341Z" fill="#3D4C37"/>
<path d="M1136.2 221.631C1136.2 228.417 1124.36 230.478 1112.2 230.478C1100.03 230.478 1092.15 228.417 1092.15 221.631C1092.15 214.844 1103.11 200.495 1115.28 200.495C1127.44 200.495 1136.2 214.844 1136.2 221.631Z" fill="#3D4C37"/>
<path d="M1032.91 221.437C1032.91 230.188 1023.52 232.846 1013.87 232.846C1004.22 232.846 997.975 230.188 997.975 221.437C997.975 212.686 1006.67 194.183 1016.32 194.183C1025.96 194.183 1032.91 212.686 1032.91 221.437Z" fill="#3D4C37"/>
<path d="M923.545 219.07C923.545 227.821 907.618 230.478 891.259 230.478C874.9 230.478 864.305 227.821 864.305 219.07C864.305 210.318 879.047 191.815 895.406 191.815C911.765 191.815 923.545 210.318 923.545 219.07Z" fill="#3D4C37"/>
<path d="M0 130.884C0 130.884 49.6861 146.829 72.5 147.884C115.211 149.859 159.024 163.915 200.676 154.259C217.971 150.249 236.088 147.4 251.5 147.884C266.239 148.347 283.412 151.469 298.903 155.114C328.628 162.109 359.26 165.963 389.572 162.269L393.892 161.743C411.552 159.59 429.402 159.851 447.06 162.015C465.313 164.252 489.881 166.906 510.5 167.884C554.478 169.97 611.273 182.343 638.129 188.714C648.408 191.152 658.782 193.016 669.295 194.043L944 220.884L1163.5 237.876L1440 227.384V241.884L0 221.011V130.884Z" fill="#788654"/>
<path d="M0 215.759L266.582 205.229L1156.5 227.5L1440 215.759V280.977H0V215.759Z" fill="#B5B73C"/>
<path d="M1152.57 91.3257C1151.71 91.3257 1150.87 91.4356 1150.07 91.639C1150.25 90.8208 1150.35 89.9839 1150.35 89.1442C1150.35 83.0038 1145.5 78.026 1139.53 78.026C1137.35 78.0228 1135.22 78.7005 1133.42 79.9693C1131.39 71.9334 1124.29 65.9999 1115.83 65.9999C1105.8 65.9999 1097.66 74.3607 1097.66 84.6741C1090.12 84.6741 1084 90.9599 1084 98.7141C1084 106.468 1090.12 112.754 1097.66 112.754H1152.57C1158.33 112.754 1163 107.957 1163 102.04C1163 96.1225 1158.33 91.3257 1152.57 91.3257Z" fill="#F6F9FA"/>
<path d="M1127.98 81.9374C1128.42 81.3514 1126.14 75.436 1131.81 69.8229C1137.47 64.2098 1142.19 66.4216 1142.76 66.1294C1143.33 65.8454 1144.42 53.0909 1155.82 48.2144C1167.22 43.3378 1180.42 47.6232 1184.74 57.2606C1188.7 66.0697 1187.5 72.5458 1187.87 72.9023C1188.22 73.2597 1193.92 72.2547 1197.98 77.1124C1202.04 81.97 1201.31 85.4564 1201.31 85.4564L1181.14 94.9495L1147.39 99.6928C1147.39 99.6928 1116.55 96.0369 1116.05 94.6733C1115.56 93.3098 1115.59 88.6479 1120.05 85.1985C1123.92 82.2023 1127.2 82.9709 1127.98 81.9374Z" fill="#CED3D7"/>
<path d="M1139.4 102.554C1139.4 102.554 1128.47 106.491 1120.03 101.668C1114.95 98.758 1115.81 92.7652 1115.81 92.7652C1115.81 92.7652 1119.56 95.6218 1126.31 95.5893C1133.07 95.5638 1140.46 94.2121 1140.46 94.2121C1140.46 94.2121 1142.76 97.1194 1149.95 97.5933C1158.96 98.1824 1162.95 93.0526 1162.95 93.0526C1162.95 93.0526 1165.75 95.584 1174.22 94.5975C1182.69 93.611 1186.59 87.0523 1187.36 86.8055C1187.75 86.6851 1190.38 88.4702 1194.88 87.0803C1199.17 85.7572 1201.21 83.5272 1201.21 83.5272C1201.21 83.5272 1202.51 88.1615 1198.5 91.6935C1195.38 94.4468 1189.42 95.5318 1189.42 95.5318C1189.42 95.5318 1189 99.1636 1185.24 102.29C1181.75 105.203 1175.27 106.922 1170.18 106.152C1163.79 105.187 1161.88 102.61 1161.88 102.61C1161.88 102.61 1157.69 105.928 1150.43 106.025C1143.57 106.13 1139.4 102.554 1139.4 102.554Z" fill="#DAE1E6"/>
<path d="M215 210.033C215 216.144 210.429 218 205.735 218C201.041 218 198 216.144 198 210.033C198 203.921 202.231 191 206.925 191C211.619 191 215 203.921 215 210.033Z" fill="#3D4C37"/>
<rect x="205.062" y="217.854" width="3.03797" height="8.67945" fill="#645959"/>
<rect x="610.633" y="223.377" width="1.51899" height="5.52329" fill="#645959"/>
<path d="M430.787 108.796C429.883 108.796 429.005 108.908 428.165 109.116C428.357 108.282 428.454 107.43 428.455 106.574C428.455 100.32 423.384 95.2495 417.13 95.2495C414.847 95.2463 412.616 95.9366 410.734 97.2289C408.61 89.0437 401.172 82.9999 392.322 82.9999C381.817 82.9999 373.301 91.5161 373.301 102.021C365.403 102.021 359 108.424 359 116.322C359 124.22 365.403 130.623 373.301 130.623H430.787C436.814 130.623 441.7 125.737 441.7 119.71C441.7 113.682 436.814 108.796 430.787 108.796Z" fill="#E7EFF2"/>
<path d="M618 217.689C618 221.763 614.236 223 610.37 223C606.504 223 604 221.763 604 217.689C604 213.614 607.484 205 611.35 205C615.216 205 618 213.614 618 217.689Z" fill="#3D4C37"/>
<path d="M95 206.689C95 210.763 91.5049 212 87.915 212C84.3251 212 82 210.763 82 206.689C82 202.614 85.2351 194 88.825 194C92.4149 194 95 202.614 95 206.689Z" fill="#3D4C37"/>
<path d="M574 212.689C574 216.763 570.505 218 566.915 218C563.325 218 561 216.763 561 212.689C561 208.614 564.235 200 567.825 200C571.415 200 574 208.614 574 212.689Z" fill="#3D4C37"/>
<rect x="566.582" y="217.854" width="1.51899" height="5.52329" fill="#645959"/>
<rect x="86.582" y="211.542" width="3.03797" height="6.31233" fill="#645959"/>
<path d="M96.4366 92.9848C95.5326 92.9848 94.655 93.0967 93.8148 93.3039C94.0069 92.4705 94.1041 91.618 94.1047 90.7628C94.1047 84.5082 89.0344 79.4379 82.7798 79.4379C80.4967 79.4347 78.2664 80.1249 76.3842 81.4173C74.2597 73.232 66.822 67.1883 57.9723 67.1883C47.4672 67.1883 38.951 75.7044 38.951 86.2095C31.0529 86.2095 24.65 92.6122 24.65 100.511C24.65 108.409 31.0527 114.812 38.951 114.812H96.4366C102.464 114.812 107.35 109.925 107.35 103.898C107.35 97.8708 102.464 92.9848 96.4366 92.9848Z" fill="#E7EFF2"/>
</svg>
