<svg width="1440" height="281" viewBox="0 0 1440 281" fill="none" xmlns="http://www.w3.org/2000/svg">
<rect y="-6.10352e-05" width="1440" height="281" fill="#DAE1E6"/>
<path d="M815.737 173.273C885.229 157.426 927.539 173.514 997.915 162.227C1044.99 154.676 1116.94 135.005 1116.94 135.005C1116.94 135.005 1206.42 98.9141 1262 92.9999C1332.75 85.4713 1440 89.9999 1440 89.9999V238.369H1065.12L704.811 211.147C704.811 211.147 771.108 183.45 815.737 173.273Z" fill="#4F6F59"/>
<path d="M997.975 222.071C997.975 234.572 973.472 238.369 948.304 238.369C923.137 238.369 906.836 234.572 906.836 222.071C906.836 209.569 929.517 183.136 954.684 183.136C979.851 183.136 997.975 209.569 997.975 222.071Z" fill="#3D4C37"/>
<path d="M1318.48 211.813C1318.48 224.315 1286.22 228.111 1253.08 228.111C1219.94 228.111 1198.48 224.315 1198.48 211.813C1198.48 199.311 1228.34 172.878 1261.48 172.878C1294.62 172.878 1318.48 199.311 1318.48 211.813Z" fill="#3D4C37"/>
<path d="M1362 206.5C1372 222 1348.47 232.846 1337.14 232.846C1325.82 232.846 1318.48 229.049 1318.48 216.547C1318.48 204.046 1328.69 177.613 1340.01 177.613C1351.34 177.613 1354.9 195.5 1362 206.5Z" fill="#3D4C37"/>
<path d="M1209.11 217.168C1209.11 225.562 1203.4 228.111 1197.52 228.111C1191.65 228.111 1187.85 225.562 1187.85 217.168C1187.85 208.774 1193.14 191.026 1199.01 191.026C1204.88 191.026 1209.11 208.774 1209.11 217.168Z" fill="#3D4C37"/>
<path d="M1440 204.77C1440 217.219 1418.76 221 1396.95 221C1375.13 221 1352 218 1361 204.77C1361 192.321 1375.13 168 1396.95 168C1418.76 168 1440 192.321 1440 204.77Z" fill="#3D4C37"/>
<path d="M1198.48 219.341C1198.48 229.7 1181.74 232.846 1164.54 232.846C1147.34 232.846 1136.2 229.7 1136.2 219.341C1136.2 208.983 1151.7 187.081 1168.9 187.081C1186.1 187.081 1198.48 208.983 1198.48 219.341Z" fill="#3D4C37"/>
<path d="M1136.2 221.631C1136.2 228.418 1124.36 230.478 1112.2 230.478C1100.03 230.478 1092.15 228.418 1092.15 221.631C1092.15 214.844 1103.11 200.495 1115.28 200.495C1127.44 200.495 1136.2 214.844 1136.2 221.631Z" fill="#3D4C37"/>
<path d="M1032.91 221.437C1032.91 230.188 1023.52 232.846 1013.87 232.846C1004.22 232.846 997.975 230.188 997.975 221.437C997.975 212.686 1006.67 194.183 1016.32 194.183C1025.96 194.183 1032.91 212.686 1032.91 221.437Z" fill="#3D4C37"/>
<path d="M923.545 219.07C923.545 227.821 907.618 230.478 891.259 230.478C874.9 230.478 864.305 227.821 864.305 219.07C864.305 210.318 879.047 191.815 895.406 191.815C911.765 191.815 923.545 210.318 923.545 219.07Z" fill="#3D4C37"/>
<path d="M0 130.884C0 130.884 49.6861 146.829 72.5 147.884C115.211 149.859 159.024 163.915 200.676 154.259C217.971 150.249 236.088 147.4 251.5 147.884C266.239 148.347 283.412 151.469 298.903 155.114C328.628 162.109 359.26 165.963 389.572 162.269L393.892 161.743C411.552 159.59 429.402 159.851 447.06 162.015C465.313 164.252 489.881 166.906 510.5 167.884C554.478 169.97 611.273 182.343 638.129 188.714C648.408 191.152 658.782 193.016 669.295 194.043L944 220.884L1163.5 237.876L1440 227.384V241.884L0 221.011V130.884Z" fill="#788654"/>
<path d="M0 215.759L266.582 205.229L1156.5 227.5L1440 215.759V280.977H0V215.759Z" fill="#B5B73C"/>
<path d="M215 210.033C215 216.144 210.429 218 205.735 218C201.041 218 198 216.144 198 210.033C198 203.921 202.231 191 206.925 191C211.619 191 215 203.921 215 210.033Z" fill="#3D4C37"/>
<rect x="205.062" y="217.854" width="3.03797" height="8.67945" fill="#645959"/>
<rect x="610.633" y="223.377" width="1.51899" height="5.52329" fill="#645959"/>
<path d="M618 217.689C618 221.763 614.236 223 610.37 223C606.504 223 604 221.763 604 217.689C604 213.614 607.484 205 611.35 205C615.216 205 618 213.614 618 217.689Z" fill="#3D4C37"/>
<path d="M95 206.689C95 210.763 91.5049 212 87.915 212C84.3251 212 82 210.763 82 206.689C82 202.614 85.2351 194 88.825 194C92.4149 194 95 202.614 95 206.689Z" fill="#3D4C37"/>
<path d="M574 212.689C574 216.763 570.505 218 566.915 218C563.325 218 561 216.763 561 212.689C561 208.614 564.235 200 567.825 200C571.415 200 574 208.614 574 212.689Z" fill="#3D4C37"/>
<rect x="566.582" y="217.854" width="1.51899" height="5.52329" fill="#645959"/>
<rect x="86.582" y="211.542" width="3.03797" height="6.31233" fill="#645959"/>
</svg>
