<svg width="38" height="37" viewBox="0 0 38 37" fill="none" xmlns="http://www.w3.org/2000/svg">
<path d="M7.10807 0.972814C6.1522 1.01315 5.35877 1.72479 5.21508 2.67066L0.349458 34.6996C0.165589 35.91 1.10253 37 2.32677 37H35.532C36.8033 37 37.752 35.8293 37.4886 34.5855L30.5131 1.6551C30.3107 0.69969 29.4479 0.0301526 28.4722 0.0713252L7.10807 0.972814Z" fill="#5C2F12"/>
<path d="M12 11C16.3333 29.6667 20.6667 29.6667 25 11" stroke="white"/>
<path d="M11.8524 13.169C12.9017 13.169 13.7524 12.2357 13.7524 11.0845C13.7524 9.93327 12.9017 9 11.8524 9C10.8031 9 9.95239 9.93327 9.95239 11.0845C9.95239 12.2357 10.8031 13.169 11.8524 13.169Z" fill="white"/>
<path d="M24.519 13.169C25.5684 13.169 26.419 12.2357 26.419 11.0845C26.419 9.93327 25.5684 9 24.519 9C23.4697 9 22.619 9.93327 22.619 11.0845C22.619 12.2357 23.4697 13.169 24.519 13.169Z" fill="white"/>
</svg>
