<svg width="34" height="35" viewBox="0 0 34 35" fill="none" xmlns="http://www.w3.org/2000/svg">
<path d="M0.615174 9.47211C1.44936 7.32574 1.05805 8.62177 2.284 6.51179C3.32012 4.72851 5.21766 3.3001 6.96956 2.16776C8.72146 1.03543 10.7227 0.322343 12.8105 0.0865011C14.8983 -0.14934 17.0136 0.0987229 18.9846 0.810516C20.9555 1.52231 22.7264 2.67773 24.1531 4.18281C25.5798 5.68789 26.622 7.50012 27.1951 9.47211C27.7682 11.4441 27.8559 13.5202 27.4511 15.5314C25.6192 21.2049 22.7949 23.8856 21.5 25.5L29.6242 34.0518C30.4138 34.883 31.6942 35.0076 32.6293 34.3444C33.3657 33.822 33.4953 32.7804 32.9094 32.0935L24.3004 22C22.2391 24.8635 23.1801 23.3791 21.5 25.5C18.057 26.9534 14.1072 26.8839 10.6303 26.0466C7.15343 25.2092 3.301 21.7107 1.44964 18.721C-0.401726 15.7313 -0.243474 12.8628 0.615174 9.47211ZM4.3453 12.4304C4.3453 15.0209 5.40051 17.5053 7.27879 19.337C9.15708 21.1687 11.7046 22.1978 14.3609 22.1978C17.0172 22.1978 19.5647 21.1687 21.443 19.337C23.3213 17.5053 24.3765 15.0209 24.3765 12.4304C24.3765 9.83994 23.3213 7.35557 21.443 5.52383C19.5647 3.69209 17.0172 2.66303 14.3609 2.66303C11.7046 2.66303 9.15708 3.69209 7.27879 5.52383C5.40051 7.35557 4.3453 9.83994 4.3453 12.4304Z" fill="#5C2F12"/>
</svg>
