<svg width="40" height="34" viewBox="0 0 40 34" fill="none" xmlns="http://www.w3.org/2000/svg">
<path d="M14.8113 5.79364C17.2954 1.93121 18.5365 0 20.3932 0C22.2499 0 23.491 1.93121 25.9751 5.79364L26.6182 6.79324C27.3241 7.89145 27.677 8.44055 28.226 8.80266C28.7749 9.16476 29.4612 9.29906 30.8336 9.56766L32.0806 9.81246C36.9037 10.7594 39.3134 11.232 39.8878 12.8317C40.4603 14.4297 38.8173 16.0974 35.5293 19.4311L34.6784 20.293C33.7452 21.2399 33.2766 21.7142 33.0668 22.299C32.857 22.8855 32.9276 23.518 33.0687 24.7811L33.1981 25.932C33.6942 30.3809 33.9432 32.6045 32.4413 33.5922C30.9395 34.5799 28.6808 33.6789 24.1674 31.8769L22.9969 31.4111C21.7147 30.8977 21.0736 30.6427 20.3932 30.6427C19.7129 30.6427 19.0717 30.8977 17.7895 31.4111L16.6209 31.8769C12.1056 33.6789 9.84694 34.5799 8.34706 33.5939C6.84325 32.6045 7.09225 30.3809 7.58829 25.932L7.71769 24.7828C7.85886 23.518 7.92944 22.8855 7.71769 22.3007C7.50986 21.7142 7.04127 21.2399 6.10801 20.2947L5.25709 19.4311C1.9691 16.0991 0.326088 14.4314 0.898594 12.8317C1.4711 11.232 3.88464 10.7577 8.70781 9.81246L9.95478 9.56766C11.3253 9.29906 12.0095 9.16476 12.5605 8.80266C13.1114 8.44055 13.4624 7.89145 14.1682 6.79324L14.8113 5.79364Z" fill="#314F2B"/>
</svg>
