<svg width="616" height="79" viewBox="0 0 616 79" fill="none" xmlns="http://www.w3.org/2000/svg">
<path d="M0 25.589C0 11.4566 11.4566 0 25.589 0H42.1175L84.5236 6.72266e-05H136.465L219.27 1.61172H458.653H500.808L585.655 0.280183C596.221 0.114368 605.617 6.97121 608.683 17.0841L612.834 30.7815C614.893 37.5751 614.784 44.8416 612.52 51.5698C612.35 52.077 611.882 52.4246 611.347 52.4412L587.888 53.1731L610.95 54.9718C611.704 55.0306 612.319 55.5995 612.437 56.3469C614.308 68.2439 605.112 79 593.068 79H560.277H500.808L468.456 75.5817L446.181 71.024L420.728 68.7452L449.469 73.4565C450.689 73.6564 450.533 75.4563 449.297 75.4433L172.086 72.5218L64.4782 75.5817L34.9311 71.0913C14.8439 68.0385 0.000122102 50.7685 6.83793e-06 30.4506C3.09045e-06 29.79 0.544579 29.2593 1.20494 29.2765L29.3127 30.0049L0.612664 26.2862C0.262261 26.2408 0 25.9423 0 25.589Z" fill="#554030"/>
<path d="M174.827 53.248C173.067 53.248 171.611 52.72 170.459 51.664C169.531 50.896 168.683 49.584 167.915 47.728C167.435 46.512 167.051 44.8 166.763 42.592C166.539 40.8 166.427 39.104 166.427 37.504C166.395 37.088 166.379 36.368 166.379 35.344V33.712V31.792C166.379 30.416 166.427 28.768 166.523 26.848C166.651 25.216 166.907 23.552 167.291 21.856C167.707 20.192 168.315 18.784 169.115 17.632C169.915 16.416 170.987 15.552 172.331 15.04C173.131 14.816 173.883 14.704 174.587 14.704C175.931 14.704 176.603 15.152 176.603 16.048C176.603 16.4 176.475 16.688 176.219 16.912C175.995 17.104 175.691 17.2 175.307 17.2C175.179 17.2 174.955 17.152 174.635 17.056L173.963 16.96C173.355 16.96 172.811 17.152 172.331 17.536C171.851 17.888 171.451 18.416 171.131 19.12C170.395 20.656 169.899 22.336 169.643 24.16C169.291 26.4 169.099 28.352 169.067 30.016C169.003 31.456 168.971 32.976 168.971 34.576V35.872C168.939 36.32 168.923 36.88 168.923 37.552C168.923 39.184 169.003 40.784 169.163 42.352C169.291 44.208 169.643 45.808 170.219 47.152C170.731 48.656 171.563 49.712 172.715 50.32C173.259 50.64 173.931 50.8 174.731 50.8C176.139 50.8 177.323 50.128 178.283 48.784C178.251 47.664 178.171 46.576 178.043 45.52C177.915 44.432 177.723 43.696 177.467 43.312C177.435 43.312 177.355 43.328 177.227 43.36C177.131 43.36 176.971 43.376 176.747 43.408L175.595 43.504C174.507 43.504 173.963 43.04 173.963 42.112C173.963 41.824 174.123 41.568 174.443 41.344C174.763 41.12 175.195 40.96 175.739 40.864C176.635 40.64 177.435 40.528 178.139 40.528C178.779 40.528 179.275 40.768 179.627 41.248C179.979 41.728 180.155 42.336 180.155 43.072C180.155 44.128 180.315 45.568 180.635 47.392C180.955 49.184 181.115 50.608 181.115 51.664C181.115 52.016 181.003 52.32 180.779 52.576C180.555 52.832 180.283 52.96 179.963 52.96C179.163 52.96 178.619 52.624 178.331 51.952V51.904L177.275 52.432C176.315 52.976 175.499 53.248 174.827 53.248ZM196.335 52.624C195.919 52.624 195.535 52.48 195.183 52.192C194.863 51.904 194.687 51.552 194.655 51.136V49.888V48.928C194.623 48.64 194.607 48.304 194.607 47.92C194.607 47.248 194.559 46.224 194.463 44.848L194.367 41.776C194.367 40.208 194.415 37.872 194.511 34.768C194.639 31.984 194.703 29.648 194.703 27.76C194.703 27.312 194.655 26.64 194.559 25.744C194.463 24.816 194.415 24.144 194.415 23.728C194.415 21.456 195.087 20.32 196.431 20.32C197.487 20.32 198.703 20.528 200.079 20.944C201.487 21.36 202.191 21.856 202.191 22.432C202.191 22.752 202.047 23.056 201.759 23.344C201.503 23.6 201.183 23.808 200.799 23.968C199.455 23.488 198.239 23.168 197.151 23.008C197.183 23.488 197.199 24.176 197.199 25.072C197.199 26.352 197.183 27.504 197.151 28.528C197.055 30.064 197.007 31.216 197.007 31.984L197.151 32.752L197.919 32.704C198.175 32.672 198.495 32.656 198.879 32.656C200.415 32.656 201.183 33.104 201.183 34C201.183 34.352 201.039 34.656 200.751 34.912C200.463 35.136 200.095 35.248 199.647 35.248C199.071 35.248 198.623 35.216 198.303 35.152H197.103C197.167 35.984 197.199 37.2 197.199 38.8C197.199 40.4 197.183 41.84 197.151 43.12C197.055 45.072 197.007 46.528 197.007 47.488C197.007 49.28 197.039 50.176 197.103 50.176L198.687 50.128C199.231 50.096 199.887 50.08 200.655 50.08C201.871 50.08 202.479 50.464 202.479 51.232C202.479 51.68 202.271 52.016 201.855 52.24C201.471 52.496 200.991 52.624 200.415 52.624H196.335ZM219.576 51.232L219.528 49.36C219.496 48.816 219.48 48.208 219.48 47.536L219.528 45.904C219.432 45.552 219.192 42.048 218.808 35.392C218.424 28.736 218.2 24.464 218.136 22.576C216.28 22.512 215.096 22.32 214.584 22C214.232 21.744 214.056 21.456 214.056 21.136C214.056 20.88 214.216 20.656 214.536 20.464C214.888 20.24 215.24 20.128 215.592 20.128C216.488 20.128 217.576 20.192 218.856 20.32C220.072 20.48 221.16 20.56 222.12 20.56H222.504H222.888C223.88 20.56 224.376 20.944 224.376 21.712C224.376 22.096 224.216 22.416 223.896 22.672C223.576 22.896 223.208 23.008 222.792 23.008C222.504 23.008 222.088 22.96 221.544 22.864L220.584 22.672L220.536 22.912L220.488 23.152C220.488 26 220.76 30.544 221.304 36.784C221.816 42.64 222.072 47.184 222.072 50.416C222.072 50.8 221.896 51.136 221.544 51.424C221.224 51.712 220.856 51.856 220.44 51.856L219.576 51.232ZM259.151 51.952C256.399 51.952 255.023 51.472 255.023 50.512C255.023 49.744 255.503 49.36 256.463 49.36H257.039C257.167 49.392 257.311 49.408 257.471 49.408C257.727 49.408 257.903 49.328 257.999 49.168C258.127 49.008 258.191 48.72 258.191 48.304C258.191 45.584 258.031 41.872 257.711 37.168C257.423 32.272 257.279 28.576 257.279 26.08C257.279 25.184 257.295 24.368 257.327 23.632L257.375 21.184C257.375 20.128 257.327 19.248 257.231 18.544C256.879 18.672 256.511 18.736 256.127 18.736C255.391 18.736 255.023 18.352 255.023 17.584C255.023 17.2 255.247 16.864 255.695 16.576C256.175 16.288 256.783 16.08 257.519 15.952C258.863 15.728 259.999 15.616 260.927 15.616C261.311 15.616 261.631 15.744 261.887 16C262.175 16.256 262.319 16.56 262.319 16.912C262.319 17.264 262.207 17.568 261.983 17.824C261.791 18.08 261.535 18.208 261.215 18.208C261.023 18.208 260.863 18.192 260.735 18.16H260.351C260.031 18.16 259.791 18.24 259.631 18.4C259.503 18.528 259.439 18.784 259.439 19.168C259.439 22.56 259.647 27.232 260.063 33.184C260.447 39.424 260.639 44.112 260.639 47.248V49.072C260.863 49.04 261.183 49.024 261.599 49.024C262.943 49.024 263.615 49.584 263.615 50.704V50.992L262.415 51.808C262.383 51.808 262.287 51.824 262.127 51.856C261.967 51.856 261.647 51.856 261.167 51.856C260.079 51.92 259.407 51.952 259.151 51.952ZM290.727 52.144C290.343 52.144 290.055 52.048 289.863 51.856C289.671 51.632 289.527 51.264 289.431 50.752L289.143 49.84V49.744V49.6C289.143 48.544 288.039 44.944 285.831 38.8C283.655 32.656 281.943 28.112 280.695 25.168V49.312L280.887 49.648C280.919 49.712 280.983 49.824 281.079 49.984C281.175 50.144 281.223 50.304 281.223 50.464C281.223 50.88 281.079 51.232 280.791 51.52C280.503 51.808 280.151 51.952 279.735 51.952C278.711 51.952 278.199 50.976 278.199 49.024L278.151 40.816C278.119 38.352 278.103 35.6 278.103 32.56C278.103 31.536 278.151 30.048 278.247 28.096C278.343 26.08 278.391 24.592 278.391 23.632C278.391 22.128 278.967 20.944 280.119 20.08V20.368C280.311 20.304 280.439 20.272 280.503 20.272C281.239 20.272 282.167 21.552 283.287 24.112C284.183 26.16 284.983 28.32 285.687 30.592C286.423 32.864 287.383 36.096 288.567 40.288L289.047 42.016C289.783 44.608 290.343 46.464 290.727 47.584C291.367 40.704 291.687 32.576 291.687 23.2V22.576C291.655 22.384 291.639 22.176 291.639 21.952C291.639 20.992 292.023 20.512 292.791 20.512C293.239 20.512 293.575 20.688 293.799 21.04C294.055 21.392 294.183 21.84 294.183 22.384V25.984C294.119 30.912 293.927 36.256 293.607 42.016C293.287 47.776 292.903 51.024 292.455 51.76C291.527 52.016 290.951 52.144 290.727 52.144ZM331.149 52.336C330.669 52.336 330.285 52.112 329.997 51.664C329.741 51.184 329.613 50.608 329.613 49.936C329.613 48.88 329.677 47.584 329.805 46.048L329.901 44.8L329.997 42.256C329.997 41.136 329.885 38.64 329.661 34.768C329.437 30.896 329.325 28.4 329.325 27.28C329.325 27.184 329.325 27.008 329.325 26.752C329.357 26.464 329.373 26.032 329.373 25.456C329.405 24.816 329.421 24.032 329.421 23.104C329.421 20.768 329.261 19.28 328.941 18.64C328.749 18.64 328.333 18.688 327.693 18.784L326.349 18.88C325.933 18.88 325.565 18.768 325.245 18.544C324.925 18.288 324.765 17.968 324.765 17.584C324.765 17.2 325.149 16.864 325.917 16.576C327.037 16.192 328.941 15.92 331.629 15.76C332.717 15.696 333.373 15.664 333.597 15.664C333.981 15.664 334.333 15.792 334.653 16.048C334.973 16.304 335.133 16.624 335.133 17.008C335.133 17.392 334.989 17.712 334.701 17.968C334.445 18.192 334.109 18.304 333.693 18.304L332.829 18.256C332.573 18.224 332.285 18.208 331.965 18.208H331.485C331.709 20.384 331.821 22.352 331.821 24.112L331.773 27.184C331.741 28.112 331.725 29.152 331.725 30.304C331.725 31.84 331.789 33.68 331.917 35.824C332.077 38.48 332.157 40.32 332.157 41.344C332.157 42.56 332.221 44 332.349 45.664C332.477 47.36 332.541 48.8 332.541 49.984C332.541 51.552 332.077 52.336 331.149 52.336ZM354.896 52.912C354.064 52.912 353.296 52.64 352.592 52.096C351.888 51.584 351.312 50.88 350.864 49.984C349.936 48.032 349.36 45.904 349.136 43.6C348.848 41.424 348.704 39.328 348.704 37.312C348.704 36.928 348.72 36.608 348.752 36.352V35.488C348.752 35.328 348.736 35.248 348.704 35.248V34.384L348.752 31.024C348.784 30 348.912 28.368 349.136 26.128C349.296 24.592 349.664 23.104 350.24 21.664C350.464 21.024 350.752 20.544 351.104 20.224C351.456 19.872 351.856 19.696 352.304 19.696C353.584 19.696 354.736 19.936 355.76 20.416C356.784 20.864 357.648 21.504 358.352 22.336C358.992 23.136 359.536 24.128 359.984 25.312C360.432 26.464 360.752 27.696 360.944 29.008C361.136 30.352 361.232 31.776 361.232 33.28V33.664C361.232 34.656 361.248 35.552 361.28 36.352L361.328 39.088C361.328 48.304 359.184 52.912 354.896 52.912ZM354.704 50.896C355.28 50.896 355.808 50.672 356.288 50.224C356.768 49.744 357.136 49.104 357.392 48.304C358 46.672 358.368 44.912 358.496 43.024C358.656 41.392 358.736 39.984 358.736 38.8C358.736 37.36 358.624 35.472 358.4 33.136C358.208 30.672 358.112 28.832 358.112 27.616V26.752C358.048 25.536 357.632 24.48 356.864 23.584C356.128 22.688 355.216 22.24 354.128 22.24C353.04 22.24 352.32 22.864 351.968 24.112C351.648 25.104 351.488 26.384 351.488 27.952C351.488 28.56 351.504 29.072 351.536 29.488V30.784L351.44 32.992C351.376 33.664 351.344 34.4 351.344 35.2C351.344 36.928 351.392 38.64 351.488 40.336C351.616 42.736 351.936 45.072 352.448 47.344C352.96 49.712 353.712 50.896 354.704 50.896ZM380.832 52.72C380.064 52.72 379.376 52.544 378.768 52.192C378.16 51.872 377.664 51.392 377.28 50.752C376.512 49.408 376.016 47.888 375.792 46.192C375.568 44.72 375.456 42.96 375.456 40.912C375.36 37.456 375.312 33.232 375.312 28.24L375.264 24.544C375.232 24.352 375.216 24.032 375.216 23.584C375.152 22.368 375.12 21.632 375.12 21.376C375.408 20.704 375.744 20.368 376.128 20.368C376.512 20.368 376.848 20.656 377.136 21.232C377.456 21.808 377.616 22.432 377.616 23.104V36.16C377.616 37.44 377.728 39.136 377.952 41.248C378.176 43.872 378.288 45.568 378.288 46.336C378.288 48.704 379.296 49.888 381.312 49.888C383.616 49.888 384.768 41.28 384.768 24.064V21.376V20.944C384.736 20.848 384.72 20.72 384.72 20.56C384.72 20.176 384.8 19.904 384.96 19.744C385.152 19.552 385.504 19.456 386.016 19.456C386.432 19.456 386.752 19.584 386.976 19.84C387.232 20.064 387.392 20.336 387.456 20.656C387.488 20.848 387.504 21.216 387.504 21.76C387.504 22.272 387.456 23.088 387.36 24.208C387.232 25.136 387.168 25.936 387.168 26.608C387.168 27.344 387.136 28 387.072 28.576L386.976 30.592V30.976C387.008 31.104 387.024 31.248 387.024 31.408C387.024 45.616 384.96 52.72 380.832 52.72ZM408.592 52.672C407.888 52.672 407.136 52.56 406.336 52.336C405.568 52.144 404.976 51.92 404.56 51.664C402.416 50.288 401.344 46.528 401.344 40.384V39.088V37.6V36.448C401.344 35.168 401.36 34.032 401.392 33.04C401.424 32.016 401.488 30.912 401.584 29.728C401.68 28.48 401.824 27.472 402.016 26.704C402.208 25.904 402.528 25.008 402.976 24.016C403.36 23.088 403.824 22.368 404.368 21.856C404.944 21.344 405.68 20.912 406.576 20.56C407.376 20.208 408.368 20.032 409.552 20.032C410.032 20.032 410.4 20.144 410.656 20.368C410.912 20.592 411.04 20.88 411.04 21.232C411.04 21.552 410.928 21.84 410.704 22.096C410.512 22.352 410.272 22.496 409.984 22.528H407.728C407.088 22.528 406.528 22.928 406.048 23.728C405.568 24.528 405.232 25.568 405.04 26.848C404.624 29.216 404.416 31.136 404.416 32.608V32.848L404.32 37.456C404.256 38.832 404.224 40.384 404.224 42.112C404.224 43.328 404.272 44.32 404.368 45.088C404.528 46.24 404.8 47.2 405.184 47.968C405.568 48.832 406.224 49.456 407.152 49.84C407.632 50.032 408.16 50.128 408.736 50.128C409.088 50.128 409.44 50 409.792 49.744C410.208 49.744 410.544 49.84 410.8 50.032C411.088 50.192 411.232 50.448 411.232 50.8C411.232 52.048 410.352 52.672 408.592 52.672ZM433.134 52C432.046 52 431.502 49.36 431.502 44.08L431.55 41.344L431.598 39.136V38.992V38.512C431.63 38.256 431.646 37.952 431.646 37.6C431.646 37.536 431.598 37.456 431.502 37.36C431.406 37.264 431.358 37.184 431.358 37.12V37.072C431.198 37.136 430.91 37.168 430.494 37.168C430.078 37.168 429.566 37.104 428.958 36.976C428.766 36.944 428.254 36.864 427.422 36.736V42.256C427.422 43.088 427.47 44.4 427.566 46.192C427.662 47.952 427.71 49.264 427.71 50.128C427.71 50.608 427.582 51.024 427.326 51.376C427.07 51.728 426.734 51.904 426.318 51.904C425.71 51.904 425.278 51.312 425.022 50.128C424.766 48.912 424.638 47.328 424.638 45.376L424.734 41.488C424.766 40.4 424.782 39.248 424.782 38.032V37.216V36.544C424.782 36.032 424.766 35.696 424.734 35.536V35.296L424.878 32.512C424.878 31.296 424.83 29.488 424.734 27.088C424.638 24.688 424.59 22.88 424.59 21.664C424.59 21.28 424.718 20.944 424.974 20.656C425.23 20.368 425.55 20.224 425.934 20.224C426.958 20.224 427.47 21.184 427.47 23.104L427.374 29.056C427.31 30.848 427.278 32.848 427.278 35.056C427.758 35.216 428.622 35.296 429.87 35.296H431.646C431.71 35.104 431.742 34.912 431.742 34.72C431.742 33.184 431.646 30.912 431.454 27.904C431.23 25.088 431.118 22.8 431.118 21.04C431.118 20.688 431.246 20.4 431.502 20.176C431.79 19.92 432.126 19.792 432.51 19.792C432.734 19.792 433.054 19.872 433.47 20.032L433.902 20.224C433.902 24.768 434.062 30.832 434.382 38.416L434.814 50.56C434.814 51.008 434.638 51.36 434.286 51.616C433.966 51.872 433.582 52 433.134 52Z" fill="#F2F0F0"/>
</svg>
