<svg width="1440" height="442" viewBox="0 0 1440 442" fill="none" xmlns="http://www.w3.org/2000/svg">
<rect x="-1" width="1440" height="406" fill="#CDD3D9"/>
<rect x="-1" y="316.909" width="425" height="9.62238" fill="#595C4E"/>
<path d="M463.04 318.046C469.908 326.899 455.875 329.666 444.495 329.666C433.115 329.666 416.335 325.792 423.89 311.406C423.89 301.322 433.115 293.146 444.495 293.146C455.875 293.146 463.04 307.961 463.04 318.046Z" fill="#242F22"/>
<path d="M822.731 319.152C831.318 328.006 813.775 330.772 799.549 330.772C785.323 330.772 764.346 326.899 773.791 312.513C773.791 302.428 785.323 294.253 799.549 294.253C813.775 294.253 822.731 309.068 822.731 319.152Z" fill="#242F22"/>
<path d="M476.759 310.285C476.558 311.376 476.99 312.46 477.625 313.37C483.5 321.793 483.425 330.25 472.636 330.25C443.055 328.633 444.383 326.491 451.454 313.086C451.831 312.37 452.008 311.563 452.105 310.759C453.187 301.769 465.972 295.417 476.618 294.848C477.617 294.795 478.606 295.104 479.415 295.693C489.527 303.059 478.217 302.383 476.759 310.285Z" fill="#242F22"/>
<path d="M757.408 305.474C757.143 306.509 756.33 307.383 755.381 308.042C745.134 315.154 741.283 324.154 752.942 327.388C785.518 334.521 784.931 331.833 783.342 315.509C783.27 314.763 783.414 313.988 783.647 313.241C786.726 303.397 775.692 292.773 764.408 289.024C763.446 288.704 762.358 288.729 761.33 289.068C746.777 293.866 759.701 296.513 757.408 305.474Z" fill="#242F22"/>
<path d="M482 287.792C484.042 284.375 487.345 281.26 492 282.197C495.68 282.938 499.5 286.593 500.815 288.72C502 287.613 504.814 284.05 509 284.196C512.984 284.334 512.817 287.736 516.613 288.72C519.421 289.448 521.316 288.11 524.168 288.72C535.252 291.091 520.734 314.173 520.734 314.173L524.168 329.113H500.815H480.21V320.813L482.958 311.96C482.958 311.96 476.894 296.337 482 287.792Z" fill="#242F22"/>
<path d="M555.075 307.533C555.075 317.617 549.428 330.219 536.531 330.219C523.634 330.219 520.047 322.044 520.047 311.959C520.047 301.875 523.634 294.253 536.531 294.253C549.428 294.253 555.075 297.448 555.075 307.533Z" fill="#242F22"/>
<path d="M584.608 309.746C584.608 321.358 576.613 330.772 566.751 330.772C556.888 330.772 521.42 333.538 548.893 309.746C553.701 298.679 556.888 285.399 566.751 285.399C576.613 285.399 579.114 299.786 584.608 309.746Z" fill="#242F22"/>
<path d="M651 311.908C651.566 312.293 651.936 312.93 651.846 313.608C650.567 323.182 632.638 330.772 610.709 330.772C587.949 330.772 536.531 334.092 569.499 312.513C569.499 302.428 588.043 294.806 610.709 288.72C632.927 288.72 638.602 303.484 651 311.908Z" fill="#242F22"/>
<path d="M678.018 309.746C689.007 334.093 666.948 330.773 653.292 330.773C639.636 330.773 606.587 330.773 628.566 309.746C628.566 298.134 639.636 286.507 653.292 286.507C666.948 286.507 678.018 298.134 678.018 309.746Z" fill="#242F22"/>
<path d="M765.934 315.833C786.538 330.773 742.871 330.773 714.421 330.773C685.972 330.773 649.172 330.773 662.909 315.833C662.909 307.582 701.769 292.04 730.218 292.04C758.668 292.04 765.934 307.582 765.934 315.833Z" fill="#242F22"/>
<path d="M765.934 315.833C786.538 330.773 742.871 330.773 714.421 330.773C685.972 330.773 649.172 330.773 662.909 315.833C662.909 307.582 701.769 292.04 730.218 292.04C758.668 292.04 765.934 307.582 765.934 315.833Z" fill="#242F22"/>
<path d="M-2 322.775H295.5H1004H1281V442H-2V322.775Z" fill="#413630"/>
<path d="M-2 322.248H463L308.719 390.643C292.658 397.763 275.65 402.52 258.225 404.766L-2 438.307V322.248Z" fill="#545E2A"/>
<path d="M506 323.831L362.388 442.001H336L506 323.831Z" fill="#545E2A"/>
<path d="M806 321.721L978.398 442H1005L806 321.721Z" fill="#545E2A"/>
<path d="M551 323.831L448.619 442.001H422L551 323.831Z" fill="#545E2A"/>
<path d="M761 322.775L893.835 442H920L761 322.775Z" fill="#545E2A"/>
<path d="M654 322.775L662 442H640L654 322.775Z" fill="#545E2A"/>
<path d="M660 322.775L716 442H690.745L660 322.775Z" fill="#545E2A"/>
<path d="M650 322.775L618.415 442H596L650 322.775Z" fill="#545E2A"/>
<path d="M640 323.831L559.728 442.001H534L640 323.831Z" fill="#545E2A"/>
<path d="M601 325.941L501.51 442.001H476L601 325.941Z" fill="#545E2A"/>
<path d="M708 323.831L820.539 442.001H846L708 323.831Z" fill="#545E2A"/>
<path d="M670 322.775L751.786 442H778L670 322.775Z" fill="#545E2A"/>
<path d="M464 322.775L364.1 388.295L267.227 442H242L385.291 371.647L464 322.775Z" fill="#545E2A"/>
<path d="M824.5 323.304H900.5L1439.5 420.899V441.473H1281.5H1070L824.5 323.304Z" fill="#545E2A"/>
<path d="M901 323.304L1438.5 421.954V407.183L901 323.304Z" fill="#DDAE52"/>
<path d="M903.5 323.304H1438.5V407.183L903.5 323.304Z" fill="#827E30"/>
<path d="M947.624 301.272H989.491L961.004 318.344L920 317.568L947.624 301.272Z" fill="#383D41"/>
<path d="M961.004 318.344L988.628 301.272L1019.7 317.18V322.923L961.004 325.328V318.344Z" fill="#010005"/>
<path d="M920 317.568L961.436 318.344V325.328L920 324.164V317.568Z" fill="#08090B"/>
<path d="M959.709 318.344L987.333 301.272H988.628L961.435 318.344H959.709Z" fill="#5D6067"/>
<path d="M969.205 318.733L987.333 308.645H992.513L975.679 318.733H969.205Z" fill="#5D6067"/>
<path d="M1021 317.18L988.628 301.272H987.333L1019.71 317.568L1021 317.18Z" fill="#5D6067"/>
<path d="M1011.5 317.181L992.512 308.645L991.377 308.893L1009.78 317.181H1011.5Z" fill="#5D6067"/>
<path d="M976.111 319.675L1011.5 318.345V323.001L976.111 324.553V319.675Z" fill="#3B3736"/>
<rect x="970.932" y="319.896" width="5.17949" height="4.65599" fill="#655E5E"/>
<rect x="959.709" y="318.345" width="0.863248" height="6.98398" fill="#616159"/>
<g filter="url(#filter0_f_888_133)">
<path d="M-2 325.328H1439V331.944L-2 337.356V325.328Z" fill="#828746"/>
</g>
<defs>
<filter id="filter0_f_888_133" x="-6" y="321.328" width="1449" height="20.0283" filterUnits="userSpaceOnUse" color-interpolation-filters="sRGB">
<feFlood flood-opacity="0" result="BackgroundImageFix"/>
<feBlend mode="normal" in="SourceGraphic" in2="BackgroundImageFix" result="shape"/>
<feGaussianBlur stdDeviation="2" result="effect1_foregroundBlur_888_133"/>
</filter>
</defs>
</svg>
