<svg width="69" height="69" viewBox="0 0 69 69" fill="none" xmlns="http://www.w3.org/2000/svg">
<path d="M25.875 32.3438H13.1747C13.5754 29.675 14.5284 27.1193 15.9726 24.8396C17.4169 22.56 19.3207 20.6067 21.5625 19.1044L25.4222 16.5169L23.0503 12.9375L19.1906 15.525C15.9418 17.69 13.2776 20.6236 11.4344 24.0653C9.59134 27.507 8.62631 31.3505 8.625 35.2547V49.5938C8.625 50.7375 9.07935 51.8344 9.8881 52.6431C10.6969 53.4519 11.7938 53.9062 12.9375 53.9062H25.875C27.0187 53.9062 28.1156 53.4519 28.9244 52.6431C29.7331 51.8344 30.1875 50.7375 30.1875 49.5938V36.6562C30.1875 35.5125 29.7331 34.4156 28.9244 33.6069C28.1156 32.7981 27.0187 32.3438 25.875 32.3438ZM56.0625 32.3438H43.3622C43.7629 29.675 44.7159 27.1193 46.1601 24.8396C47.6044 22.56 49.5082 20.6067 51.75 19.1044L55.6097 16.5169L53.2594 12.9375L49.3781 15.525C46.1293 17.69 43.4651 20.6236 41.6219 24.0653C39.7788 27.507 38.8138 31.3505 38.8125 35.2547V49.5938C38.8125 50.7375 39.2669 51.8344 40.0756 52.6431C40.8844 53.4519 41.9813 53.9062 43.125 53.9062H56.0625C57.2062 53.9062 58.3031 53.4519 59.1119 52.6431C59.9206 51.8344 60.375 50.7375 60.375 49.5938V36.6562C60.375 35.5125 59.9206 34.4156 59.1119 33.6069C58.3031 32.7981 57.2062 32.3438 56.0625 32.3438Z" fill="#290601"/>
</svg>
